<?xml version="1.0" encoding="UTF-8"?>
<!DOCTYPE svg PUBLIC "-//W3C//DTD SVG 1.1//EN" "http://www.w3.org/Graphics/SVG/1.1/DTD/svg11.dtd">
<!-- Creator: CorelDRAW X5 -->
<svg xmlns="http://www.w3.org/2000/svg" xml:space="preserve" width="27.3676mm" height="31.4476mm" style="shape-rendering:geometricPrecision; text-rendering:geometricPrecision; image-rendering:optimizeQuality; fill-rule:evenodd; clip-rule:evenodd"
viewBox="0 0 2737 3145"
 xmlns:xlink="http://www.w3.org/1999/xlink"
 xmlns:svg="http://www.w3.org/2000/svg">
 <defs>
  <style type="text/css">
   <![CDATA[
    .str0 {stroke:#332C2B;stroke-width:7.62}
    .fil0 {fill:none}
    .fil2 {fill:#0600FF}
    .fil1 {fill:#FFDF01}
    .fil3 {fill:#FFDF01;fill-rule:nonzero}
   ]]>
  </style>
 </defs>
<symbol id="format_x0020_logo_x0020_utk_x0020_jpg" viewBox="-7968 -8175 18672 19496">
 <rect class="fil0 str0" x="-7964" y="-8172" width="18665" height="19488"/>
</symbol>
 <g id="Layer_x0020_1">
  <metadata id="CorelCorpID_0Corel-Layer"/>
 </g>
 <g id="svg2">
  <metadata id="CorelCorpID_1Corel-Layer"/>
  <polygon class="fil1" points="0,2674 2737,2674 2737,3145 0,3145 "/>
  <polygon class="fil2" points="41,2717 2696,2717 2696,3104 41,3104 "/>
  <path class="fil3" d="M250 2798l0 151c0,17 -1,29 -2,36 -1,7 -4,14 -10,21 -5,7 -13,13 -22,17 -9,4 -20,6 -32,6 -13,0 -25,-2 -36,-7 -10,-4 -18,-10 -23,-17 -5,-7 -8,-15 -9,-23 -1,-8 -1,-25 -1,-50l0 -134 59 0 0 169c0,10 1,16 2,19 1,3 3,4 6,4 4,0 6,-2 7,-5 1,-3 2,-10 2,-21l0 -166 59 0zm154 0l0 226 -51 0 -31 -103 0 103 -49 0 0 -226 49 0 33 102 0 -102 49 0zm82 0l0 226 -59 0 0 -226 59 0zm163 0l-30 226 -89 0 -34 -226 62 0c7,62 12,115 15,158 3,-44 6,-82 10,-116l4 -42 62 0zm10 0l98 0 0 45 -39 0 0 43 37 0 0 43 -37 0 0 50 43 0 0 45 -102 0 0 -226zm119 0l42 0c28,0 46,1 56,3 10,2 18,8 24,16 6,9 9,23 9,42 0,18 -2,29 -7,35 -4,6 -13,10 -26,11 12,3 19,7 23,12 4,5 6,9 7,13 1,4 1,15 1,33l0 60 -55 0 0 -75c0,-12 -1,-20 -3,-22 -2,-3 -7,-4 -15,-4l0 102 -59 0 0 -226zm59 39l0 50c7,0 11,-1 14,-3 3,-2 4,-8 4,-18l0 -12c0,-7 -1,-12 -4,-14 -3,-2 -7,-3 -14,-3zm219 30l-54 0 0 -17c0,-8 -1,-13 -2,-15 -1,-2 -4,-3 -7,-3 -4,0 -6,1 -8,4 -2,3 -3,7 -3,13 0,8 1,13 3,17 2,4 8,8 17,14 26,16 42,28 49,38 7,10 10,26 10,48 0,16 -2,28 -6,36 -4,8 -11,14 -22,19 -11,5 -23,8 -38,8 -16,0 -29,-3 -40,-9 -11,-6 -18,-14 -22,-23 -3,-9 -5,-22 -5,-39l0 -15 55 0 0 27c0,8 1,14 2,16 2,2 4,4 8,4 4,0 7,-2 9,-5 2,-3 3,-8 3,-14 0,-13 -2,-22 -5,-26 -4,-4 -13,-11 -27,-21 -15,-10 -24,-17 -29,-21 -5,-4 -9,-10 -12,-18 -3,-8 -5,-18 -5,-30 0,-17 2,-30 7,-38 4,-8 12,-14 21,-19 10,-5 22,-7 36,-7 15,0 28,2 39,7 11,5 18,11 21,19 3,7 5,20 5,38l0 9zm82 -68l0 226 -59 0 0 -226 59 0zm142 0l0 45 -35 0 0 181 -59 0 0 -181 -35 0 0 -45 128 0zm103 0l34 226 -60 0 -3 -41 -21 0 -3 41 -61 0 30 -226 85 0zm-31 145c-3,-26 -6,-57 -9,-95 -6,43 -9,75 -11,95l20 0zm199 -77l-54 0 0 -17c0,-8 -1,-13 -2,-15 -1,-2 -4,-3 -7,-3 -4,0 -6,1 -8,4 -2,3 -3,7 -3,13 0,8 1,13 3,17 2,4 8,8 17,14 26,16 42,28 49,38 7,10 10,26 10,48 0,16 -2,28 -6,36 -4,8 -11,14 -22,19 -11,5 -23,8 -38,8 -16,0 -29,-3 -40,-9 -11,-6 -18,-14 -22,-23 -3,-9 -5,-22 -5,-39l0 -15 55 0 0 27c0,8 1,14 2,16 2,2 4,4 8,4 4,0 7,-2 9,-5 2,-3 3,-8 3,-14 0,-13 -2,-22 -5,-26 -4,-4 -13,-11 -27,-21 -15,-10 -24,-17 -29,-21 -5,-4 -9,-10 -12,-18 -3,-8 -5,-18 -5,-30 0,-17 2,-30 7,-38 4,-8 12,-14 21,-19 10,-5 22,-7 36,-7 15,0 28,2 39,7 11,5 18,11 21,19 3,7 5,20 5,38l0 9zm207 -68l0 151c0,17 -1,29 -2,36 -1,7 -4,14 -10,21 -5,7 -13,13 -22,17 -9,4 -20,6 -32,6 -13,0 -25,-2 -36,-7 -10,-4 -18,-10 -23,-17 -5,-7 -8,-15 -9,-23 -1,-8 -1,-25 -1,-50l0 -134 59 0 0 169c0,10 1,16 2,19 1,3 3,4 6,4 4,0 6,-2 7,-5 1,-3 2,-10 2,-21l0 -166 59 0zm23 0l44 0c28,0 47,1 57,4 10,3 18,7 23,13 5,6 8,13 10,20 1,7 2,22 2,43l0 79c0,20 -1,34 -3,41 -2,7 -5,12 -10,16 -5,4 -11,7 -18,8 -7,2 -17,2 -31,2l-74 0 0 -226zm59 39l0 149c8,0 13,-2 15,-5 2,-3 3,-13 3,-28l0 -88c0,-10 0,-17 -1,-20 -1,-3 -2,-5 -4,-6 -2,-1 -7,-2 -13,-2zm200 -39l34 226 -60 0 -3 -41 -21 0 -3 41 -61 0 30 -226 85 0zm-31 145c-3,-26 -6,-57 -9,-95 -6,43 -9,75 -11,95l20 0zm183 -145l-43 144 0 82 -54 0 0 -82 -41 -144 54 0c8,44 13,74 14,89 3,-24 9,-54 16,-89l54 0zm97 0l34 226 -60 0 -3 -41 -21 0 -3 41 -61 0 30 -226 85 0zm-31 145c-3,-26 -6,-57 -9,-95 -6,43 -9,75 -11,95l20 0zm206 -145l0 226 -51 0 -31 -103 0 103 -49 0 0 -226 49 0 33 102 0 -102 49 0zm125 0l34 226 -60 0 -3 -41 -21 0 -3 41 -61 0 30 -226 85 0zm-31 145c-3,-26 -6,-57 -9,-95 -6,43 -9,75 -11,95l20 0z"/>
  <path class="fil2" d="M1368 54c711,0 1287,576 1287,1287 0,711 -576,1287 -1287,1287 -711,0 -1287,-576 -1287,-1287 0,-711 576,-1287 1287,-1287z"/>
  <path class="fil1" d="M1368 268c296,0 564,120 759,314 194,194 314,462 314,759 0,296 -120,564 -314,759 -194,194 -462,314 -759,314 -296,0 -564,-120 -759,-314 -194,-194 -314,-462 -314,-759 0,-296 120,-564 314,-759 194,-194 462,-314 759,-314zm0 -150c24,0 43,19 43,43 0,24 -19,43 -43,43 -24,0 -43,-19 -43,-43 0,-24 19,-43 43,-43zm0 2446c24,0 43,-19 43,-43 0,-24 -19,-43 -43,-43 -24,0 -43,19 -43,43 0,24 19,43 43,43zm-134 -8c-24,0 -43,-19 -43,-43 0,-24 19,-43 43,-43 24,0 43,19 43,43 0,24 -19,43 -43,43zm-132 -23c-24,0 -43,-19 -43,-43 0,-24 19,-43 43,-43 24,0 43,19 43,43 0,24 -19,43 -43,43zm-122 -35c-24,0 -43,-19 -43,-43 0,-24 19,-43 43,-43 24,0 43,19 43,43 0,24 -19,43 -43,43zm-116 -48c-24,0 -43,-19 -43,-43 0,-24 19,-43 43,-43 24,0 43,19 43,43 0,24 -19,43 -43,43zm-124 -68c-24,0 -43,-19 -43,-43 0,-24 19,-43 43,-43 24,0 43,19 43,43 0,24 -19,43 -43,43zm-110 -79c-24,0 -43,-19 -43,-43 0,-24 19,-43 43,-43 24,0 43,19 43,43 0,24 -19,43 -43,43zm-107 -97c-24,0 -43,-19 -43,-43 0,-24 19,-43 43,-43 24,0 43,19 43,43 0,24 -19,43 -43,43zm-91 -105c-24,0 -43,-19 -43,-43 0,-24 19,-43 43,-43 24,0 43,19 43,43 0,24 -19,43 -43,43zm-242 -642c-24,0 -43,-19 -43,-43 0,-24 19,-43 43,-43 24,0 43,19 43,43 0,24 -19,43 -43,43zm17 138c-24,0 -43,-19 -43,-43 0,-24 19,-43 43,-43 24,0 43,19 43,43 0,24 -19,43 -43,43zm33 135c-24,0 -43,-19 -43,-43 0,-24 19,-43 43,-43 24,0 43,19 43,43 0,24 -19,43 -43,43zm48 127c-24,0 -43,-19 -43,-43 0,-24 19,-43 43,-43 24,0 43,19 43,43 0,24 -19,43 -43,43zm1214 695c24,0 43,-19 43,-43 0,-24 -19,-43 -43,-43 -24,0 -43,19 -43,43 0,24 19,43 43,43zm132 -23c24,0 43,-19 43,-43 0,-24 -19,-43 -43,-43 -24,0 -43,19 -43,43 0,24 19,43 43,43zm122 -35c24,0 43,-19 43,-43 0,-24 -19,-43 -43,-43 -24,0 -43,19 -43,43 0,24 19,43 43,43zm116 -48c24,0 43,-19 43,-43 0,-24 -19,-43 -43,-43 -24,0 -43,19 -43,43 0,24 19,43 43,43zm124 -68c24,0 43,-19 43,-43 0,-24 -19,-43 -43,-43 -24,0 -43,19 -43,43 0,24 19,43 43,43zm110 -79c24,0 43,-19 43,-43 0,-24 -19,-43 -43,-43 -24,0 -43,19 -43,43 0,24 19,43 43,43zm107 -97c24,0 43,-19 43,-43 0,-24 -19,-43 -43,-43 -24,0 -43,19 -43,43 0,24 19,43 43,43zm91 -105c24,0 43,-19 43,-43 0,-24 -19,-43 -43,-43 -24,0 -43,19 -43,43 0,24 19,43 43,43zm242 -642c24,0 43,-19 43,-43 0,-24 -19,-43 -43,-43 -24,0 -43,19 -43,43 0,24 19,43 43,43zm-17 138c24,0 43,-19 43,-43 0,-24 -19,-43 -43,-43 -24,0 -43,19 -43,43 0,24 19,43 43,43zm-33 135c24,0 43,-19 43,-43 0,-24 -19,-43 -43,-43 -24,0 -43,19 -43,43 0,24 19,43 43,43zm-48 127c24,0 43,-19 43,-43 0,-24 -19,-43 -43,-43 -24,0 -43,19 -43,43 0,24 19,43 43,43zm-64 123c24,0 43,-19 43,-43 0,-24 -19,-43 -43,-43 -24,0 -43,19 -43,43 0,24 19,43 43,43zm-2032 0c-24,0 -43,-19 -43,-43 0,-24 19,-43 43,-43 24,0 43,19 43,43 0,24 -19,43 -43,43zm882 -1859c-24,0 -43,19 -43,43 0,24 19,43 43,43 24,0 43,-19 43,-43 0,-24 -19,-43 -43,-43zm-132 23c-24,0 -43,19 -43,43 0,24 19,43 43,43 24,0 43,-19 43,-43 0,-24 -19,-43 -43,-43zm-122 35c-24,0 -43,19 -43,43 0,24 19,43 43,43 24,0 43,-19 43,-43 0,-24 -19,-43 -43,-43zm-116 48c-24,0 -43,19 -43,43 0,24 19,43 43,43 24,0 43,-19 43,-43 0,-24 -19,-43 -43,-43zm-124 68c-24,0 -43,19 -43,43 0,24 19,43 43,43 24,0 43,-19 43,-43 0,-24 -19,-43 -43,-43zm-110 79c-24,0 -43,19 -43,43 0,24 19,43 43,43 24,0 43,-19 43,-43 0,-24 -19,-43 -43,-43zm-107 97c-24,0 -43,19 -43,43 0,24 19,43 43,43 24,0 43,-19 43,-43 0,-24 -19,-43 -43,-43zm-91 105c-24,0 -43,19 -43,43 0,24 19,43 43,43 24,0 43,-19 43,-43 0,-24 -19,-43 -43,-43zm-242 642c-24,0 -43,19 -43,43 0,24 19,43 43,43 24,0 43,-19 43,-43 0,-24 -19,-43 -43,-43zm17 -138c-24,0 -43,19 -43,43 0,24 19,43 43,43 24,0 43,-19 43,-43 0,-24 -19,-43 -43,-43zm33 -135c-24,0 -43,19 -43,43 0,24 19,43 43,43 24,0 43,-19 43,-43 0,-24 -19,-43 -43,-43zm48 -127c-24,0 -43,19 -43,43 0,24 19,43 43,43 24,0 43,-19 43,-43 0,-24 -19,-43 -43,-43zm1214 -695c24,0 43,19 43,43 0,24 -19,43 -43,43 -24,0 -43,-19 -43,-43 0,-24 19,-43 43,-43zm132 23c24,0 43,19 43,43 0,24 -19,43 -43,43 -24,0 -43,-19 -43,-43 0,-24 19,-43 43,-43zm122 35c24,0 43,19 43,43 0,24 -19,43 -43,43 -24,0 -43,-19 -43,-43 0,-24 19,-43 43,-43zm116 48c24,0 43,19 43,43 0,24 -19,43 -43,43 -24,0 -43,-19 -43,-43 0,-24 19,-43 43,-43zm124 68c24,0 43,19 43,43 0,24 -19,43 -43,43 -24,0 -43,-19 -43,-43 0,-24 19,-43 43,-43zm110 79c24,0 43,19 43,43 0,24 -19,43 -43,43 -24,0 -43,-19 -43,-43 0,-24 19,-43 43,-43zm107 97c24,0 43,19 43,43 0,24 -19,43 -43,43 -24,0 -43,-19 -43,-43 0,-24 19,-43 43,-43zm91 105c24,0 43,19 43,43 0,24 -19,43 -43,43 -24,0 -43,-19 -43,-43 0,-24 19,-43 43,-43zm242 642c24,0 43,19 43,43 0,24 -19,43 -43,43 -24,0 -43,-19 -43,-43 0,-24 19,-43 43,-43zm-17 -138c24,0 43,19 43,43 0,24 -19,43 -43,43 -24,0 -43,-19 -43,-43 0,-24 19,-43 43,-43zm-33 -135c24,0 43,19 43,43 0,24 -19,43 -43,43 -24,0 -43,-19 -43,-43 0,-24 19,-43 43,-43zm-48 -127c24,0 43,19 43,43 0,24 -19,43 -43,43 -24,0 -43,-19 -43,-43 0,-24 19,-43 43,-43zm-64 -123c24,0 43,19 43,43 0,24 -19,43 -43,43 -24,0 -43,-19 -43,-43 0,-24 19,-43 43,-43zm-2032 0c-24,0 -43,19 -43,43 0,24 19,43 43,43 24,0 43,-19 43,-43 0,-24 -19,-43 -43,-43zm1095 565l0 0c0,0 -18,-17 -18,-37 0,-21 13,-41 36,-46 23,-5 32,3 32,3 0,0 20,-46 -29,-83 -49,-37 -99,-29 -99,-29 0,0 -51,-8 -99,29 -49,37 -29,83 -29,83 0,0 9,-8 32,-3 23,5 36,26 36,46 0,21 -18,37 -18,37l0 0 0 0 0 0c0,0 -17,18 -37,18 -21,0 -41,-13 -46,-36 -5,-23 3,-32 3,-32 0,0 -46,-20 -83,29 -37,49 -29,99 -29,99 0,0 -8,51 29,99 37,49 83,29 83,29 0,0 -8,-9 -3,-32 5,-23 26,-36 46,-36 21,0 37,18 37,18l0 0 0 0 0 0c0,0 18,17 18,37 0,21 -13,41 -36,46 -23,5 -32,-3 -32,-3 0,0 -20,46 29,83 49,37 99,29 99,29 0,0 51,8 99,-29 49,-37 29,-83 29,-83 0,0 -9,8 -32,3 -23,-5 -36,-26 -36,-46 0,-21 18,-37 18,-37l0 0 0 0 0 0c0,0 17,-18 37,-18 21,0 41,13 46,36 5,23 -3,32 -3,32 0,0 46,20 83,-29 37,-49 29,-99 29,-99 0,0 8,-51 -29,-99 -37,-49 -83,-29 -83,-29 0,0 8,9 3,32 -5,23 -26,36 -46,36 -21,0 -37,-18 -37,-18l0 0 0 0zm-30 30c13,13 20,30 20,49 0,19 -8,37 -20,49l0 0c-13,13 -30,20 -49,20 -19,0 -37,-8 -49,-20l0 0c-13,-13 -20,-30 -20,-49 0,-19 8,-37 20,-49l0 0c13,-13 30,-20 49,-20 19,0 37,8 49,20l0 0zm521 -521l0 0c-19,-19 -19,-49 0,-68 1,-1 3,-3 5,-4 4,-4 10,-9 14,-13 7,-7 6,-23 -10,-18 -16,5 -17,27 -27,31 -10,4 -44,2 -29,-33 14,-35 29,-33 42,-36 13,-2 24,2 31,0 6,-2 4,-9 -2,-17 -162,-132 -368,-211 -593,-211 -225,0 -432,79 -593,211 -7,8 -9,15 -2,17 6,2 18,-2 31,0 13,2 28,1 42,36 14,35 -20,36 -29,33 -10,-4 -10,-25 -27,-31 -16,-5 -18,10 -10,18 4,4 10,9 14,13 2,1 3,3 5,4 19,19 19,49 0,68l0 0 0 0 0 0c-19,19 -49,19 -68,0 -1,-1 -3,-3 -4,-5 -4,-4 -9,-10 -13,-14 -7,-7 -23,-6 -18,10 5,16 27,17 31,27 4,10 2,44 -33,29 -35,-14 -33,-29 -36,-42 -2,-13 2,-24 0,-31 -2,-6 -9,-4 -17,2 -132,162 -211,368 -211,593 0,225 79,432 211,593 8,7 15,9 17,2 2,-6 -2,-18 0,-31 2,-13 1,-28 36,-42 35,-14 36,20 33,29 -4,10 -25,10 -31,27 -5,16 10,18 18,10 4,-4 9,-10 13,-14 1,-2 3,-3 4,-5 19,-19 49,-19 68,0l0 0 0 0 0 0c19,19 19,49 0,68 -1,1 -3,3 -5,4 -4,4 -10,9 -14,13 -7,7 -6,23 10,18 16,-5 17,-27 27,-31 10,-4 44,-2 29,33 -14,35 -29,33 -42,36 -13,2 -24,-2 -31,0 -6,2 -4,9 2,17 162,132 368,211 593,211 225,0 432,-79 593,-211 7,-8 9,-15 2,-17 -6,-2 -18,2 -31,0 -13,-2 -28,-1 -42,-36 -14,-35 20,-36 29,-33 10,4 10,25 27,31 16,5 18,-10 10,-18 -4,-4 -10,-9 -14,-13 -2,-1 -3,-3 -5,-4 -19,-19 -19,-49 0,-68l0 0 0 0 0 0c19,-19 49,-19 68,0 1,1 3,3 4,5 4,4 9,10 13,14 7,7 23,6 18,-10 -5,-16 -27,-17 -31,-27 -4,-10 -2,-44 33,-29 35,14 33,29 36,42 2,13 -2,24 0,31 2,6 9,4 17,-2 132,-162 211,-368 211,-593 0,-225 -79,-432 -211,-593 -8,-7 -15,-9 -17,-2 -2,6 2,18 0,31 -2,13 -1,28 -36,42 -35,14 -36,-20 -33,-29 4,-10 25,-10 31,-27 5,-16 -10,-18 -18,-10 -4,4 -9,10 -13,14 -1,2 -3,3 -4,5 -19,19 -49,19 -68,0l0 0 0 0zm-253 253c0,0 3,2 3,10 0,7 -2,18 -15,30 -14,12 -32,15 -41,20 -9,5 -42,40 -49,52 -7,12 -3,23 10,36 13,12 41,34 65,34 24,0 55,-16 73,-25 17,-9 26,-22 25,-39 -1,-17 -35,-16 -46,-9 -11,7 -26,10 -26,-8 0,-18 33,-21 41,-41 8,-20 -2,-45 -2,-45 0,0 13,7 30,7 16,1 36,-11 44,-15 8,-4 17,-1 39,-2 21,-1 29,-22 12,-31 -17,-10 -38,-41 -38,-41 0,0 26,-45 50,-55 23,-10 50,-4 70,-7 20,-3 36,-23 36,-23l30 -1 0 48 46 0 -1 53 52 0c0,0 0,8 0,18 0,10 -3,28 -25,53 -21,25 -54,22 -85,25 -31,2 -17,27 -7,38 10,11 41,22 91,22 49,0 83,-35 103,-64 20,-29 31,-40 33,-23 2,16 -6,66 0,80 6,15 22,-1 25,34 3,35 -23,48 -37,48 -13,0 -29,-33 -40,-10 -12,23 1,93 -10,94 -11,1 -11,-11 -29,-37 -18,-27 -39,-13 -40,1 -2,15 8,39 9,54 1,15 -9,11 -25,-2 -15,-12 -11,-35 -23,-50 -12,-16 -36,-9 -38,9 -2,18 10,25 17,43 5,13 6,26 7,38 -1,12 -2,25 -7,38 -7,18 -18,25 -17,43 2,18 26,25 38,9 12,-16 8,-38 23,-50 15,-12 25,-17 25,-2 -1,15 -11,39 -9,54 2,15 22,28 40,1 18,-27 18,-39 29,-37 11,1 -2,70 10,94 12,23 27,-10 40,-10 13,0 40,13 37,48 -3,35 -19,20 -25,34 -6,15 2,64 0,80 -2,16 -13,6 -33,-23 -20,-29 -54,-64 -103,-64 -49,0 -80,11 -91,22 -10,11 -25,36 7,38 31,2 64,0 85,25 21,25 25,42 25,53 0,10 0,18 0,18l-52 0 1 53 -46 0 0 48 -30 -1c0,0 -16,-21 -36,-23 -20,-3 -46,3 -70,-7 -23,-10 -50,-55 -50,-55 0,0 21,-32 38,-41 17,-10 9,-31 -12,-31 -21,-1 -31,3 -39,-2 -8,-4 -28,-16 -44,-15 -16,1 -30,7 -30,7 0,0 10,-26 2,-45 -8,-20 -41,-22 -41,-41 0,-18 15,-15 26,-8 11,7 45,8 46,-9 1,-17 -8,-30 -25,-39 -17,-9 -49,-25 -73,-25 -24,0 -53,21 -65,34 -13,12 -17,23 -10,36 7,12 39,47 49,52 10,5 28,8 41,20 14,12 15,23 15,30 0,7 -3,10 -3,10l0 0c0,0 -2,3 -10,3 -7,0 -18,-2 -30,-15 -12,-14 -15,-32 -20,-41 -5,-9 -40,-42 -52,-49 -12,-7 -23,-3 -36,10 -12,13 -34,41 -34,65 0,24 16,55 25,73 9,17 22,26 39,25 17,-1 16,-35 9,-46 -7,-11 -10,-26 8,-26 18,0 21,33 41,41 20,8 45,-2 45,-2 0,0 -7,13 -7,30 -1,16 11,36 15,44 4,8 1,17 2,39 1,21 22,29 31,12 10,-17 41,-38 41,-38 0,0 45,26 55,50 10,23 4,50 7,70 3,20 23,36 23,36l1 30 -48 0 0 46 -53 -1 0 52c0,0 -8,0 -18,0 -10,0 -28,-3 -53,-25 -25,-21 -22,-54 -25,-85 -2,-31 -27,-17 -38,-7 -11,10 -22,41 -22,91 0,49 35,83 64,103 29,20 40,31 23,33 -16,2 -66,-6 -80,0 -15,6 1,22 -34,25 -35,3 -48,-23 -48,-37 0,-13 33,-29 10,-40 -23,-12 -93,1 -94,-10 -1,-11 11,-11 37,-29 27,-18 13,-39 -1,-40 -15,-2 -39,8 -54,9 -15,1 -11,-9 2,-25 12,-15 35,-11 50,-23 16,-12 9,-36 -9,-38 -18,-2 -25,10 -43,17 -13,5 -26,6 -38,7 -12,-1 -25,-2 -38,-7 -18,-7 -25,-18 -43,-17 -18,2 -25,26 -9,38 16,12 38,8 50,23 12,15 17,25 2,25 -15,-1 -39,-11 -54,-9 -15,2 -28,22 -1,40 27,18 39,18 37,29 -1,11 -70,-2 -94,10 -23,12 10,27 10,40 0,13 -13,40 -48,37 -35,-3 -20,-19 -34,-25 -15,-6 -64,2 -80,0 -16,-2 -6,-13 23,-33 29,-20 64,-54 64,-103 0,-49 -11,-80 -22,-91 -11,-10 -36,-25 -38,7 -2,31 0,64 -25,85 -25,21 -42,25 -53,25 -10,0 -18,0 -18,0l0 -52 -53 1 0 -46 -48 0 1 -30c0,0 21,-16 23,-36 3,-20 -3,-46 7,-70 10,-23 55,-50 55,-50 0,0 32,21 41,38 10,17 31,9 31,-12 1,-21 -3,-31 2,-39 4,-8 16,-28 15,-44 -1,-16 -7,-30 -7,-30 0,0 26,10 45,2 20,-8 22,-41 41,-41 18,0 15,15 8,26 -7,11 -8,45 9,46 17,1 30,-8 39,-25 9,-17 25,-49 25,-73 0,-24 -21,-53 -34,-65 -12,-13 -23,-17 -36,-10 -12,7 -47,39 -52,49 -5,10 -8,28 -20,41 -12,14 -23,15 -30,15 -7,0 -10,-3 -10,-3l0 0c0,0 -3,-2 -3,-10 0,-7 2,-18 15,-30 14,-12 32,-15 41,-20 9,-5 42,-40 49,-52 7,-12 3,-23 -10,-36 -13,-12 -41,-34 -65,-34 -24,0 -55,16 -73,25 -17,9 -26,22 -25,39 1,17 35,16 46,9 11,-7 26,-10 26,8 0,18 -33,21 -41,41 -8,20 2,45 2,45 0,0 -13,-7 -30,-7 -16,-1 -36,11 -44,15 -8,4 -17,1 -39,2 -21,1 -29,22 -12,31 17,10 38,41 38,41 0,0 -26,45 -50,55 -23,10 -50,4 -70,7 -20,3 -36,23 -36,23l-30 1 0 -48 -46 0 1 -53 -52 0c0,0 0,-8 0,-18 0,-10 3,-28 25,-53 21,-25 54,-22 85,-25 31,-2 17,-27 7,-38 -10,-11 -41,-22 -91,-22 -49,0 -83,35 -103,64 -20,29 -31,40 -33,23 -2,-16 6,-66 0,-80 -6,-15 -22,1 -25,-34 -3,-35 23,-48 37,-48 13,0 28,33 40,10 12,-23 -1,-93 10,-94 11,-1 11,11 29,37 18,27 39,13 40,-1 2,-15 -8,-39 -9,-54 -1,-15 10,-11 25,2 15,12 11,35 23,50 12,16 36,9 38,-9 2,-18 -10,-25 -17,-43 -5,-13 -6,-26 -7,-38 1,-12 2,-25 7,-38 7,-18 18,-25 17,-43 -2,-18 -26,-25 -38,-9 -12,16 -8,38 -23,50 -15,12 -25,17 -25,2 1,-15 11,-39 9,-54 -2,-15 -22,-28 -40,-1 -18,27 -18,39 -29,37 -11,-1 2,-70 -10,-94 -12,-23 -27,10 -40,10 -13,0 -40,-13 -37,-48 3,-35 19,-20 25,-34 6,-15 -2,-64 0,-80 2,-16 13,-6 33,23 20,29 54,64 103,64 49,0 80,-11 91,-22 10,-11 25,-36 -7,-38 -31,-2 -64,0 -85,-25 -21,-25 -25,-42 -25,-53 0,-10 0,-18 0,-18l52 0 -1 -53 46 0 0 -48 30 1c0,0 16,21 36,23 20,3 46,-3 70,7 23,10 50,55 50,55 0,0 -21,32 -38,41 -17,10 -9,31 12,31 21,1 31,-3 39,2 8,4 28,16 44,15 16,-1 30,-7 30,-7 0,0 -10,26 -2,45 8,20 41,22 41,41 0,18 -15,15 -26,8 -11,-7 -45,-8 -46,9 -1,17 8,30 25,39 17,9 49,25 73,25 24,0 53,-21 65,-34 13,-12 17,-23 10,-36 -7,-12 -39,-47 -49,-52 -10,-5 -28,-8 -41,-20 -14,-12 -15,-23 -15,-30 0,-7 3,-10 3,-10l0 0c0,0 2,-3 10,-3 7,0 18,2 30,15 12,14 15,32 20,41 5,9 40,42 52,49 12,7 23,3 36,-10 12,-13 34,-41 34,-65 0,-24 -16,-55 -25,-73 -9,-17 -22,-26 -39,-25 -17,1 -16,35 -9,46 7,11 10,26 -8,26 -18,0 -21,-33 -41,-41 -20,-8 -45,2 -45,2 0,0 7,-13 7,-30 1,-16 -11,-36 -15,-44 -4,-8 -1,-17 -2,-39 -1,-21 -22,-29 -31,-12 -10,17 -41,38 -41,38 0,0 -45,-26 -55,-50 -10,-23 -4,-50 -7,-70 -3,-20 -23,-36 -23,-36l-1 -30 48 0 0 -46 53 1 0 -52c0,0 8,0 18,0 10,0 28,3 53,25 25,21 22,54 25,85 2,31 27,17 38,7 11,-10 22,-41 22,-91 0,-49 -35,-83 -64,-103 -29,-20 -40,-31 -23,-33 16,-2 66,6 80,0 15,-6 -1,-22 34,-25 35,-3 48,23 48,37 0,13 -33,29 -10,40 23,12 93,-1 94,10 1,11 -11,11 -37,29 -27,18 -13,39 1,40 15,2 39,-8 54,-9 15,-1 11,10 -2,25 -12,15 -35,11 -50,23 -16,12 -9,36 9,38 18,2 25,-10 43,-17 13,-5 26,-6 38,-7 12,1 25,2 38,7 18,7 25,18 43,17 18,-2 25,-26 9,-38 -16,-12 -38,-8 -50,-23 -12,-15 -17,-25 -2,-25 15,1 39,11 54,9 15,-2 28,-22 1,-40 -27,-18 -39,-18 -37,-29 1,-11 70,2 94,-10 23,-12 -10,-27 -10,-40 0,-13 13,-40 48,-37 35,3 20,19 34,25 15,6 64,-2 80,0 16,2 6,13 -23,33 -29,20 -64,54 -64,103 0,49 11,80 22,91 11,10 36,25 38,-7 2,-31 0,-64 25,-85 25,-21 42,-25 53,-25 10,0 18,0 18,0l0 52 53 -1 0 46 48 0 -1 30c0,0 -21,16 -23,36 -3,20 3,46 -7,70 -10,23 -55,50 -55,50 0,0 -32,-21 -41,-38 -10,-17 -31,-9 -31,12 -1,21 3,31 -2,39 -4,8 -16,28 -15,44 1,16 7,30 7,30 0,0 -26,-10 -45,-2 -20,8 -22,41 -41,41 -18,0 -15,-15 -8,-26 7,-11 8,-45 -9,-46 -17,-1 -30,8 -39,25 -9,17 -25,49 -25,73 0,24 21,53 34,65 12,13 23,17 36,10 12,-7 47,-39 52,-49 5,-10 8,-28 20,-41 12,-14 23,-15 30,-15 7,0 10,3 10,3l0 0zm403 1038c184,-184 299,-439 299,-721 0,-281 -114,-536 -299,-721 -184,-184 -439,-299 -721,-299 -281,0 -536,114 -721,299 -184,184 -299,439 -299,721 0,281 114,536 299,721 184,184 439,299 721,299 281,0 536,-114 721,-299zm-721 620c370,0 706,-150 948,-393 243,-243 393,-578 393,-948 0,-370 -150,-706 -393,-948 -243,-243 -578,-393 -948,-393 -370,0 -706,150 -948,393 -243,243 -393,578 -393,948 0,370 150,706 393,948 243,243 578,393 948,393zm910 -431c-233,233 -555,377 -910,377 -356,0 -677,-144 -910,-377 -233,-233 -377,-555 -377,-910 0,-356 144,-677 377,-910 233,-233 555,-377 910,-377 356,0 677,144 910,377 233,233 377,555 377,910 0,355 -144,677 -377,910zm-910 -98c24,0 43,19 43,43 0,24 -19,43 -43,43 -24,0 -43,-19 -43,-43 0,-24 19,-43 43,-43zm0 -328c5,0 9,0 14,0 14,0 59,-30 68,-46 8,-16 -5,-64 4,-64 10,-1 8,23 24,34 16,11 37,0 37,-22 0,-22 -23,-32 -26,-53 -2,-21 -15,-31 -27,-32 -12,-1 -25,20 -36,22 -11,3 -28,2 -43,3 -15,1 -11,20 -11,35 1,15 6,21 8,44 2,23 0,41 -4,47 -4,6 -8,4 -8,4 0,0 -4,2 -8,-4 -4,-6 -6,-24 -4,-47 2,-23 7,-29 8,-44 1,-15 4,-34 -11,-35 -15,-1 -32,-1 -43,-3 -11,-3 -24,-23 -36,-22 -12,1 -25,11 -27,32 -2,21 -26,31 -26,53 0,22 21,33 37,22 16,-11 15,-35 24,-34 10,1 -4,48 4,64 8,16 54,46 68,46 5,0 9,0 14,0zm0 60c12,-1 36,-4 62,-15 35,-16 37,-38 23,-46 -14,-8 -24,5 -40,12 -15,6 -45,7 -45,7 0,0 -30,-1 -45,-7 -15,-6 -26,-20 -40,-12 -14,8 -12,30 23,46 25,11 50,14 62,15zm0 71c0,0 22,1 37,0 15,-1 59,-19 66,-41 8,-22 -2,-30 -18,-31 -16,-1 -23,13 -38,21 -15,7 -48,7 -48,7 0,0 -33,0 -48,-7 -15,-7 -22,-21 -38,-21 -16,1 -26,9 -18,31 8,22 52,41 66,41 15,1 37,0 37,0zm813 -615c0,24 19,43 43,43 24,0 43,-19 43,-43 0,-24 -19,-43 -43,-43 -24,0 -43,19 -43,43zm-328 0c0,5 0,9 0,14 0,14 -30,59 -46,68 -16,8 -64,-5 -64,4 -1,10 23,8 34,24 11,16 0,37 -22,37 -22,0 -32,-23 -53,-26 -21,-2 -31,-15 -32,-27 -1,-12 20,-25 22,-36 3,-11 2,-28 3,-43 1,-15 20,-11 35,-11 15,1 21,6 44,8 23,2 41,0 47,-4 6,-4 4,-8 4,-8 0,0 2,-4 -4,-8 -6,-4 -24,-6 -47,-4 -23,2 -29,7 -44,8 -15,1 -34,4 -35,-11 -1,-15 -1,-32 -3,-43 -3,-11 -23,-24 -22,-36 1,-12 11,-25 32,-27 21,-2 31,-26 53,-26 22,0 33,21 22,37 -11,16 -35,15 -34,24 1,10 48,-4 64,4 16,8 46,54 46,68 0,5 0,9 0,14zm60 0c-1,12 -4,36 -15,62 -16,35 -38,37 -46,23 -8,-14 5,-24 12,-40 6,-15 7,-45 7,-45 0,0 -1,-30 -7,-45 -6,-15 -20,-26 -12,-40 8,-14 30,-12 46,23 11,25 14,50 15,62zm71 0c0,0 1,22 0,37 -1,15 -19,59 -41,66 -22,8 -30,-2 -31,-18 -1,-16 13,-23 21,-38 7,-15 7,-48 7,-48 0,0 0,-33 -7,-48 -7,-15 -21,-22 -21,-38 1,-16 9,-26 31,-18 22,8 41,52 41,66 1,15 0,37 0,37zm-1428 0c0,24 -19,43 -43,43 -24,0 -43,-19 -43,-43 0,-24 19,-43 43,-43 24,0 43,19 43,43zm328 0c0,5 0,9 0,14 0,14 30,59 46,68 16,8 64,-5 64,4 1,10 -23,8 -34,24 -11,16 0,37 22,37 22,0 32,-23 53,-26 21,-2 31,-15 32,-27 1,-12 -20,-25 -22,-36 -3,-11 -2,-28 -3,-43 -1,-15 -20,-11 -35,-11 -15,1 -21,6 -44,8 -23,2 -41,0 -47,-4 -6,-4 -4,-8 -4,-8 0,0 -2,-4 4,-8 6,-4 24,-6 47,-4 23,2 29,7 44,8 15,1 34,4 35,-11 1,-15 1,-32 3,-43 3,-11 23,-24 22,-36 -1,-12 -11,-25 -32,-27 -21,-2 -31,-26 -53,-26 -22,0 -33,21 -22,37 11,16 35,15 34,24 -1,10 -48,-4 -64,4 -16,8 -46,54 -46,68 0,5 0,9 0,14zm-60 0c1,12 4,36 15,62 16,35 38,37 46,23 8,-14 -5,-24 -12,-40 -6,-15 -7,-45 -7,-45 0,0 1,-30 7,-45 6,-15 20,-26 12,-40 -8,-14 -30,-12 -46,23 -11,25 -14,50 -15,62zm-71 0c0,0 -1,22 0,37 1,15 19,59 41,66 22,8 30,-2 31,-18 1,-16 -13,-23 -21,-38 -7,-15 -7,-48 -7,-48 0,0 0,-33 7,-48 7,-15 21,-22 21,-38 -1,-16 -9,-26 -31,-18 -22,8 -41,52 -41,66 -1,15 0,37 0,37zm615 -813c-24,0 -43,-19 -43,-43 0,-24 19,-43 43,-43 24,0 43,19 43,43 0,24 -19,43 -43,43zm0 328c-5,0 -9,0 -14,0 -14,0 -59,30 -68,46 -8,16 5,64 -4,64 -10,1 -8,-23 -24,-34 -16,-11 -37,0 -37,22 0,22 23,32 26,53 2,21 15,31 27,32 12,1 25,-20 36,-22 11,-3 28,-2 43,-3 15,-1 11,-20 11,-35 -1,-15 -6,-21 -8,-44 -2,-23 0,-41 4,-47 4,-6 8,-4 8,-4 0,0 4,-2 8,4 4,6 6,24 4,47 -2,23 -7,29 -8,44 -1,15 -4,34 11,35 15,1 32,1 43,3 11,3 24,23 36,22 12,-1 25,-11 27,-32 2,-21 26,-31 26,-53 0,-22 -21,-33 -37,-22 -16,11 -15,35 -24,34 -10,-1 4,-48 -4,-64 -8,-16 -54,-46 -68,-46 -5,0 -9,0 -14,0zm0 -60c-12,1 -36,4 -62,15 -35,16 -37,38 -23,46 14,8 24,-5 40,-12 15,-6 45,-7 45,-7 0,0 30,1 45,7 15,6 26,20 40,12 14,-8 12,-30 -23,-46 -25,-11 -50,-14 -62,-15zm0 -71c0,0 -22,-1 -37,0 -15,1 -59,19 -66,41 -8,22 2,30 18,31 16,1 23,-13 38,-21 15,-7 48,-7 48,-7 0,0 33,0 48,7 15,7 22,21 38,21 16,-1 26,-9 18,-31 -8,-22 -52,-41 -66,-41 -15,-1 -37,0 -37,0z"/>
 </g>
</svg>
